<?xml version="1.0" encoding="UTF-8"?><svg id="Capa_1" xmlns="http://www.w3.org/2000/svg" viewBox="0 0 60 60"><defs><style>.cls-1{fill:#f8b133;}.cls-2{fill:#f29104;}</style></defs><path class="cls-2" d="M0,30C0,13.43,13.43,0,30,0s30,13.43,30,30-13.43,30-30,30S0,46.57,0,30"/><path class="cls-1" d="M51,30c0,11.6-9.4,21-21,21S9,41.6,9,30,18.4,9,30,9s21,9.4,21,21"/><g><path class="cls-2" d="M30,17.52h0c.84,0,1.6,.43,2.04,1.14l9.71,15.8c.46,.75,.48,1.66,.05,2.42-.43,.77-1.21,1.23-2.09,1.23H20.29c-.88,0-1.66-.46-2.09-1.23-.43-.77-.41-1.67,.05-2.42l9.71-15.8c.44-.71,1.2-1.14,2.04-1.14Zm9.71,18.59c.2,0,.3-.13,.34-.2,.04-.08,.1-.23,0-.4l-9.71-15.8c-.1-.16-.25-.19-.34-.19h0c-.08,0-.24,.02-.34,.19l-9.71,15.8c-.11,.17-.05,.32,0,.4,.04,.08,.14,.2,.35,.2h19.43Z"/><path class="cls-2" d="M30,27.18c.55,0,1,.45,1,1v5.72c0,.55-.45,1-1,1s-1-.45-1-1v-5.72c0-.55,.45-1,1-1Z"/><circle class="cls-2" cx="29.94" cy="25.38" r=".99"/></g></svg>