<?xml version="1.0" encoding="UTF-8"?><svg id="Capa_1" xmlns="http://www.w3.org/2000/svg" viewBox="0 0 60 60"><defs><style>.cls-1{fill:#bd1824;}.cls-2{fill:#e10a19;}</style></defs><path class="cls-1" d="M.9,30.45C.9,14.13,14.13,.9,30.45,.9s29.55,13.23,29.55,29.55-13.23,29.55-29.55,29.55S.9,46.77,.9,30.45"/><path class="cls-2" d="M51.14,30.45c0,11.42-9.26,20.68-20.68,20.68S9.77,41.87,9.77,30.45,19.03,9.77,30.45,9.77s20.68,9.26,20.68,20.68"/><path class="cls-1" d="M31.91,30.45l7.54-7.11c.4-.38,.42-1.01,.04-1.41-.38-.4-1.01-.42-1.41-.04l-7.63,7.19-7.63-7.19c-.4-.38-1.03-.36-1.41,.04-.38,.4-.36,1.03,.04,1.41l7.54,7.11-7.54,7.11c-.4,.38-.42,1.01-.04,1.41,.2,.21,.46,.31,.73,.31,.25,0,.49-.09,.69-.27l7.63-7.19,7.63,7.19c.19,.18,.44,.27,.69,.27,.27,0,.53-.11,.73-.31,.38-.4,.36-1.03-.04-1.41l-7.54-7.11Z"/></svg>