<?xml version="1.0" encoding="UTF-8"?><svg id="Capa_1" xmlns="http://www.w3.org/2000/svg" viewBox="0 0 60 60"><defs><style>.cls-1{fill:#3aaa35;}.cls-2{fill:#008e39;}</style></defs><path class="cls-2" d="M.9,30.45C.9,14.13,14.13,.9,30.45,.9s29.55,13.23,29.55,29.55-13.23,29.55-29.55,29.55S.9,46.77,.9,30.45"/><path class="cls-1" d="M51.14,30.45c0,11.42-9.26,20.68-20.68,20.68S9.77,41.87,9.77,30.45,19.03,9.77,30.45,9.77s20.68,9.26,20.68,20.68"/><path class="cls-2" d="M25.48,37.57c-.28,0-.56-.12-.75-.34l-5.33-6.12c-.36-.42-.32-1.05,.1-1.41,.42-.36,1.05-.32,1.41,.1l4.68,5.37,13.62-11.6c.42-.36,1.05-.31,1.41,.11,.36,.42,.31,1.05-.11,1.41l-14.37,12.24c-.19,.16-.42,.24-.65,.24Z"/></svg>