<svg width="501" height="501" xmlns="http://www.w3.org/2000/svg" xmlns:xlink="http://www.w3.org/1999/xlink" xml:space="preserve" overflow="hidden"><defs><clipPath id="clip0"><rect x="336" y="308" width="501" height="501"/></clipPath></defs><g clip-path="url(#clip0)" transform="translate(-336 -308)"><path d="M468 677 704 677 704 440 468 440ZM481.882 453.941 690.118 453.941 690.118 663.059 481.882 663.059Z" fill-rule="evenodd"/><path d="M837 426.292 837 412.375 774.375 412.375 774.375 405.417C774.352 386.211 758.789 370.648 739.583 370.625L732.625 370.625 732.625 308 718.709 308 718.709 370.625 676.958 370.625 676.958 308 663.042 308 663.042 370.625 621.292 370.625 621.292 308 607.375 308 607.375 370.625 565.625 370.625 565.625 308 551.708 308 551.708 370.625 509.958 370.625 509.958 308 496.042 308 496.042 370.625 454.292 370.625 454.292 308 440.375 308 440.375 370.625 433.417 370.625C414.211 370.648 398.648 386.211 398.625 405.417L398.625 412.375 336 412.375 336 426.292 398.625 426.292 398.625 468.042 336 468.042 336 481.958 398.625 481.958 398.625 523.708 336 523.708 336 537.625 398.625 537.625 398.625 579.375 336 579.375 336 593.292 398.625 593.292 398.625 635.042 336 635.042 336 648.958 398.625 648.958 398.625 690.708 336 690.708 336 704.625 398.625 704.625 398.625 711.583C398.648 730.789 414.211 746.352 433.417 746.375L440.375 746.375 440.375 809 454.292 809 454.292 746.375 496.042 746.375 496.042 809 509.958 809 509.958 746.375 551.708 746.375 551.708 809 565.625 809 565.625 746.375 607.375 746.375 607.375 809 621.292 809 621.292 746.375 663.042 746.375 663.042 809 676.958 809 676.958 746.375 718.709 746.375 718.709 809 732.625 809 732.625 746.375 739.583 746.375C758.789 746.352 774.352 730.789 774.375 711.583L774.375 704.625 837 704.625 837 690.708 774.375 690.708 774.375 648.958 837 648.958 837 635.042 774.375 635.042 774.375 593.292 837 593.292 837 579.375 774.375 579.375 774.375 537.625 837 537.625 837 523.708 774.375 523.708 774.375 481.958 837 481.958 837 468.042 774.375 468.042 774.375 426.292ZM760.458 711.583C760.458 723.112 751.113 732.458 739.583 732.458L433.417 732.458C421.887 732.458 412.541 723.112 412.541 711.583L412.541 405.417C412.541 393.887 421.887 384.542 433.417 384.542L739.583 384.542C751.113 384.542 760.458 393.887 760.458 405.417Z" fill-rule="evenodd"/></g></svg>