<svg xmlns="http://www.w3.org/2000/svg" xmlns:xlink="http://www.w3.org/1999/xlink" width="1080" zoomAndPan="magnify" viewBox="0 0 810 809.999993" height="1080" preserveAspectRatio="xMidYMid meet" version="1.0"><defs><clipPath id="5b5f515578"><path d="M 529 18.59375 L 796.863281 18.59375 L 796.863281 180 L 529 180 Z M 529 18.59375 " clip-rule="nonzero"/></clipPath><clipPath id="4b865f4e3a"><path d="M 13.113281 179 L 775 179 L 775 791.085938 L 13.113281 791.085938 Z M 13.113281 179 " clip-rule="nonzero"/></clipPath></defs><g clip-path="url(#5b5f515578)"><path d="M 709.605469 147.445312 C 735.714844 122.28125 737.042969 80.671875 712.28125 53.824219 C 738.71875 67.582031 760.476562 88.722656 773.179688 102.816406 C 759.804688 115.902344 737.042969 135.367188 709.605469 147.445312 Z M 578.101562 78.320312 C 589.132812 68.925781 600.847656 60.871094 613.566406 54.164062 C 589.132812 81.003906 590.476562 122.28125 616.585938 147.445312 C 589.132812 135.367188 566.058594 115.902344 552.996094 102.816406 C 560.691406 94.09375 569.0625 86.039062 578.101562 78.320312 Z M 663.09375 152.816406 C 633.636719 152.816406 609.546875 128.65625 609.546875 99.125 C 609.546875 69.597656 633.636719 45.4375 663.09375 45.4375 C 692.535156 45.4375 716.628906 69.597656 716.628906 99.125 C 716.628906 128.65625 692.535156 152.816406 663.09375 152.816406 Z M 793.265625 93.421875 C 773.851562 70.605469 722.996094 18.59375 663.09375 18.59375 C 603.195312 18.59375 552.339844 70.605469 532.925781 93.421875 C 527.902344 99.460938 528.230469 107.851562 533.597656 113.554688 C 553.339844 134.359375 603.867188 179.660156 663.09375 179.660156 C 722.324219 179.660156 772.851562 134.359375 792.921875 113.554688 C 797.945312 108.1875 798.289062 99.460938 793.265625 93.421875 Z M 793.265625 93.421875 " fill-opacity="1" fill-rule="evenodd"/></g><path d="M 696.746094 99.125 C 696.746094 117.695312 681.679688 132.746094 663.109375 132.746094 C 644.542969 132.746094 629.476562 117.695312 629.476562 99.125 C 629.476562 80.558594 644.542969 65.503906 663.109375 65.503906 C 681.679688 65.503906 696.746094 80.558594 696.746094 99.125 Z M 696.746094 99.125 " fill-opacity="1" fill-rule="evenodd"/><g clip-path="url(#4b865f4e3a)"><path d="M 181.269531 590.390625 L 251.226562 590.390625 C 266.058594 590.484375 279.996094 583.292969 288.507812 571.15625 C 297.015625 559.019531 299.003906 543.484375 293.855469 529.59375 C 288.695312 515.703125 277.039062 505.230469 262.664062 501.574219 L 192.6875 483.328125 C 179.140625 479.757812 164.703125 482.675781 153.609375 491.21875 C 142.503906 499.765625 136.011719 512.96875 136.027344 526.957031 L 136.027344 545.203125 C 136.027344 557.1875 140.785156 568.679688 149.277344 577.15625 C 157.757812 585.628906 169.269531 590.390625 181.269531 590.390625 Z M 167.191406 526.957031 C 167.191406 519.195312 173.496094 512.910156 181.269531 512.910156 C 182.472656 512.910156 183.679688 513.066406 184.835938 513.375 L 254.808594 531.621094 C 261.804688 533.289062 266.402344 539.953125 265.496094 547.082031 C 264.570312 554.203125 258.425781 559.488281 251.226562 559.335938 L 181.269531 559.335938 C 173.496094 559.335938 167.191406 553.046875 167.191406 545.285156 Z M 58.28125 469.972656 C 44.609375 496.328125 37.820312 525.699219 38.53125 555.375 L 38.53125 737.519531 C 38.550781 751.71875 44.214844 765.335938 54.265625 775.375 C 64.320312 785.417969 77.953125 791.070312 92.171875 791.085938 L 141.378906 791.085938 C 155.597656 791.070312 169.238281 785.417969 179.28125 775.375 C 189.339844 765.335938 195.003906 751.722656 195.019531 737.519531 L 195.019531 724.476562 L 593.058594 724.476562 L 593.058594 737.519531 C 593.074219 751.71875 598.738281 765.335938 608.796875 775.375 C 618.839844 785.417969 632.480469 791.070312 646.699219 791.085938 L 695.980469 791.085938 C 710.199219 791.070312 723.824219 785.417969 733.882812 775.375 C 743.941406 765.335938 749.605469 751.722656 749.621094 737.519531 L 749.621094 555.847656 C 750.324219 526.179688 743.535156 496.808594 729.878906 470.445312 C 742.394531 468.273438 753.75 461.796875 761.980469 452.140625 C 770.207031 442.484375 774.808594 430.257812 774.964844 417.570312 L 774.964844 389.621094 C 774.636719 375.914062 769.035156 362.863281 759.351562 353.152344 C 749.652344 343.441406 736.605469 337.820312 722.886719 337.445312 L 708.101562 337.445312 C 695.554688 337.707031 683.292969 341.210938 672.511719 347.617188 C 659.292969 315.867188 638.222656 267.957031 623.140625 246.21875 C 594.386719 204.996094 553.183594 193.578125 524.960938 188.613281 C 481.660156 181.878906 437.839844 178.945312 394.039062 179.839844 C 350.332031 178.886719 306.636719 181.738281 263.445312 188.378906 C 235.066406 193.351562 193.941406 204.6875 165.171875 245.988281 C 150.089844 267.726562 129.019531 315.859375 115.8125 347.386719 L 115.804688 347.386719 C 104.964844 340.96875 92.644531 337.460938 80.046875 337.210938 L 65.433594 337.210938 C 51.625 337.535156 38.484375 343.160156 28.730469 352.921875 C 18.988281 362.6875 13.390625 375.835938 13.113281 389.621094 L 13.113281 417.570312 C 13.378906 430.1875 18.035156 442.3125 26.277344 451.875 C 34.511719 461.433594 45.832031 467.835938 58.28125 469.980469 Z M 44.207031 390.78125 C 44.207031 384.917969 46.527344 379.292969 50.667969 375.136719 C 54.800781 370.976562 60.417969 368.617188 66.285156 368.574219 L 79.65625 368.574219 C 91.859375 369.269531 103.335938 374.570312 111.765625 383.40625 C 115.503906 386.894531 120.726562 388.332031 125.734375 387.226562 C 130.738281 386.125 134.871094 382.636719 136.792969 377.890625 C 158.492188 324.085938 179.078125 280.453125 190.515625 264.070312 C 212.351562 233.015625 243.6875 223.695312 268.25 219.347656 L 268.25 219.351562 C 309.703125 213.152344 351.597656 210.550781 393.492188 211.589844 C 435.386719 210.550781 477.296875 213.152344 518.734375 219.351562 C 543.609375 223.699219 574.941406 232.707031 596.46875 264.074219 C 607.90625 280.53125 628.492188 324.089844 650.1875 377.898438 L 650.1875 377.890625 C 652.113281 382.636719 656.242188 386.125 661.25 387.226562 C 666.253906 388.332031 671.480469 386.894531 675.21875 383.40625 C 683.605469 374.597656 695.023438 369.300781 707.164062 368.574219 L 720.773438 368.574219 C 726.828125 368.34375 732.695312 370.578125 737.058594 374.769531 C 741.40625 378.957031 743.878906 384.742188 743.863281 390.78125 L 743.863281 416.867188 C 743.863281 423.046875 741.40625 428.972656 737.027344 433.335938 C 732.664062 437.707031 726.734375 440.160156 720.539062 440.160156 L 702.203125 440.160156 C 696.308594 440.160156 690.925781 443.480469 688.28125 448.746094 C 685.652344 454.003906 686.234375 460.296875 689.753906 465.003906 C 691.519531 467.332031 693.210938 469.6875 694.804688 472.070312 C 710.996094 496.859375 719.148438 526.03125 718.128906 555.605469 L 718.128906 737.519531 C 718.128906 743.488281 715.753906 749.214844 711.527344 753.433594 C 707.304688 757.65625 701.5625 760.03125 695.585938 760.03125 L 646.683594 760.03125 C 640.710938 760.03125 634.984375 757.65625 630.746094 753.433594 C 626.519531 749.214844 624.144531 743.488281 624.144531 737.519531 L 624.144531 708.945312 C 624.144531 704.828125 622.5 700.875 619.589844 697.96875 C 616.679688 695.054688 612.722656 693.417969 608.59375 693.417969 L 179.46875 693.417969 C 170.882812 693.417969 163.921875 700.367188 163.921875 708.945312 L 163.921875 737.519531 C 163.921875 743.488281 161.542969 749.214844 157.320312 753.433594 C 153.09375 757.65625 147.355469 760.03125 141.378906 760.03125 L 92.015625 760.03125 C 86.035156 760.03125 80.304688 757.65625 76.074219 753.433594 C 71.84375 749.214844 69.46875 743.484375 69.46875 737.519531 L 69.46875 555.371094 C 68.503906 525.898438 76.648438 496.835938 92.792969 472.144531 C 94.398438 469.757812 96.085938 467.410156 97.847656 465.074219 L 97.847656 465.082031 C 101.375 460.375 101.945312 454.078125 99.316406 448.816406 C 96.679688 443.558594 91.292969 440.234375 85.40625 440.234375 L 83.230469 440.234375 L 67.527344 440 C 61.339844 440 55.40625 437.546875 51.035156 433.179688 C 46.660156 428.8125 44.207031 422.886719 44.207031 416.710938 L 44.207031 390.777344 Z M 536.992188 590.394531 L 606.964844 590.394531 C 618.933594 590.375 630.414062 585.613281 638.878906 577.160156 C 647.34375 568.707031 652.113281 557.246094 652.128906 545.289062 L 652.128906 526.960938 C 652.128906 512.972656 645.636719 499.769531 634.53125 491.226562 C 623.4375 482.683594 609 479.765625 595.453125 483.335938 L 525.492188 501.578125 C 511.101562 505.234375 499.429688 515.71875 494.285156 529.625 C 489.121094 543.523438 491.140625 559.074219 499.664062 571.203125 C 508.191406 583.339844 522.144531 590.511719 536.992188 590.398438 Z M 533.425781 531.625 L 603.382812 513.378906 C 604.558594 513.070312 605.761719 512.914062 606.964844 512.914062 C 614.726562 512.914062 621.03125 519.199219 621.03125 526.960938 L 621.03125 545.207031 C 620.984375 552.953125 614.710938 559.21875 606.964844 559.261719 L 536.992188 559.261719 C 529.8125 559.417969 523.664062 554.132812 522.738281 547.011719 C 521.816406 539.882812 526.417969 533.214844 533.410156 531.542969 Z M 533.425781 531.625 " fill-opacity="1" fill-rule="evenodd"/></g></svg>