<svg xmlns="http://www.w3.org/2000/svg" xmlns:xlink="http://www.w3.org/1999/xlink" width="1080" zoomAndPan="magnify" viewBox="0 0 810 809.999993" height="1080" preserveAspectRatio="xMidYMid meet" version="1.0"><defs><clipPath id="149d1b66d9"><path d="M 13.113281 144.027344 L 796.863281 144.027344 L 796.863281 665.96875 L 13.113281 665.96875 Z M 13.113281 144.027344 " clip-rule="nonzero"/></clipPath></defs><path d="M 27.382812 511.792969 C 30.855469 509.984375 36.007812 512.90625 38.644531 518.121094 C 41.371094 523.53125 40.695312 529.230469 37.105469 531.09375 C 36.378906 531.476562 35.578125 531.65625 34.714844 531.65625 C 31.492188 531.65625 27.921875 528.886719 25.835938 524.753906 C 23.109375 519.351562 23.792969 513.660156 27.382812 511.792969 Z M 27.859375 523.714844 C 29.890625 527.734375 33.722656 530.269531 36.070312 529.039062 C 38.449219 527.808594 38.699219 523.292969 36.628906 519.179688 C 34.949219 515.851562 32.132812 513.535156 29.773438 513.535156 C 29.28125 513.535156 28.828125 513.644531 28.425781 513.851562 C 26.039062 515.085938 25.789062 519.597656 27.859375 523.714844 Z M 27.859375 523.714844 " fill-opacity="1" fill-rule="evenodd"/><path d="M 224.59375 625.726562 C 228.058594 623.835938 233.222656 626.875 235.859375 632.320312 C 238.585938 637.953125 237.914062 643.878906 234.320312 645.828125 C 233.59375 646.226562 232.792969 646.417969 231.9375 646.417969 C 228.707031 646.417969 225.144531 643.527344 223.058594 639.234375 C 220.320312 633.59375 221.003906 627.664062 224.59375 625.726562 Z M 225.074219 638.132812 C 227.105469 642.320312 230.9375 644.964844 233.289062 643.679688 C 235.664062 642.398438 235.914062 637.695312 233.835938 633.402344 C 232.152344 629.933594 229.335938 627.523438 226.980469 627.523438 C 226.484375 627.523438 226.035156 627.628906 225.628906 627.855469 C 223.253906 629.136719 223.003906 633.847656 225.074219 638.132812 Z M 225.074219 638.132812 " fill-opacity="1" fill-rule="evenodd"/><path d="M 497.105469 338.691406 C 497.105469 338.691406 519.828125 415.164062 520.605469 423.851562 L 406.695312 486.605469 C 406.695312 486.605469 429.585938 404.957031 446.554688 377.210938 C 454.734375 363.835938 472.214844 349.898438 497.105469 338.691406 Z M 497.105469 338.691406 " fill-opacity="1" fill-rule="evenodd"/><path d="M 574.511719 302.140625 C 574.511719 302.140625 611.703125 346.363281 616.664062 366.132812 C 616.664062 366.132812 540.886719 411.285156 533.625 415.199219 C 533.625 415.199219 509.378906 339.984375 507.855469 331.40625 C 507.855469 331.40625 564.574219 304.007812 574.511719 302.140625 Z M 574.511719 302.140625 " fill-opacity="1" fill-rule="evenodd"/><path d="M 625.582031 301.621094 C 635.429688 305.519531 655.777344 313.53125 661.835938 322.210938 C 664.308594 325.75 665.964844 338.535156 665.964844 338.535156 L 630.664062 359.945312 C 626.152344 344.4375 585.210938 295.339844 585.210938 295.339844 C 602.484375 295.347656 616.085938 297.859375 625.582031 301.621094 Z M 625.582031 301.621094 " fill-opacity="1" fill-rule="evenodd"/><path d="M 178.027344 370.921875 C 178.027344 370.921875 269.78125 294.136719 284.59375 281.738281 C 284.59375 281.738281 331.765625 316.058594 346.496094 324.199219 C 361.234375 332.347656 417.621094 361.710938 433.898438 368.496094 C 433.898438 368.496094 400.113281 455.375 391.578125 489.152344 C 391.578125 489.152344 296.664062 453.949219 258.671875 429.609375 C 233.851562 413.707031 189.269531 384.125 178.027344 370.921875 Z M 178.027344 370.921875 " fill-opacity="1" fill-rule="evenodd"/><g clip-path="url(#149d1b66d9)"><path d="M 13.175781 516.546875 C 13.460938 514.257812 16.160156 506.199219 19.492188 504.121094 C 22.152344 502.457031 26.183594 499.035156 26.65625 498.085938 C 26.71875 497.894531 26.839844 497.488281 26.996094 496.890625 C 28.394531 491.730469 32.675781 476.046875 40.023438 468.707031 L 43.632812 465.089844 C 56.648438 452.011719 91.238281 417.269531 100.234375 410.921875 C 105.039062 407.527344 139.085938 380.300781 171.996094 353.964844 C 207.167969 325.828125 243.539062 296.730469 251.355469 290.992188 C 251.769531 290.667969 292.738281 258.789062 315.480469 245.3125 C 338.285156 231.789062 396.625 198.949219 408.273438 192.945312 C 419.855469 186.957031 442.824219 179.191406 450.871094 177.996094 C 453.097656 177.65625 456.054688 177.335938 459.285156 176.984375 C 467.0625 176.140625 476.75 175.082031 480.699219 173.332031 C 483.183594 172.210938 541.738281 145.839844 559.949219 144.082031 L 560.574219 144.027344 L 561.144531 144.292969 C 561.925781 144.660156 639.996094 181.085938 664.78125 194.324219 C 689.539062 207.550781 750.742188 251.484375 762.765625 260.15625 C 773.351562 267.800781 777.109375 273 777.109375 280.054688 C 777.109375 282.417969 777.203125 288.175781 777.320312 294.15625 L 792.503906 305.011719 C 792.640625 305.09375 796.242188 307.429688 796.664062 311.769531 C 797.078125 316.121094 797.117188 321.136719 794.601562 328.261719 C 793.867188 330.332031 792.953125 332.164062 792.070312 333.9375 C 790.054688 337.96875 788.460938 341.140625 789.613281 345.5 L 790.015625 347.039062 L 697.59375 413.910156 L 694.160156 412.0625 C 693.265625 421.941406 689.941406 432.871094 684.613281 443.261719 C 673.683594 464.574219 656.339844 479.460938 642.4375 479.460938 C 639.554688 479.460938 636.878906 478.84375 634.410156 477.574219 L 610.105469 464.265625 L 606.773438 466.128906 C 575 483.9375 414.441406 574.03125 373.304688 599.113281 L 372.210938 599.785156 L 369.882812 598.636719 C 368.988281 608.488281 365.65625 619.40625 360.351562 629.761719 C 349.425781 651.074219 332.078125 665.96875 318.175781 665.96875 C 315.304688 665.96875 312.617188 665.34375 310.128906 664.0625 L 282.316406 648.519531 L 281.332031 648.925781 C 275.71875 650.800781 257.726562 659.199219 257.148438 659.429688 C 256.917969 659.492188 251.347656 660.945312 246.523438 661.238281 L 245.832031 661.285156 C 240.835938 661.597656 238.171875 661.339844 233.414062 658.96875 C 229.335938 656.925781 136.121094 608.652344 119.300781 599.058594 C 107.460938 592.296875 67.457031 566.117188 43.558594 550.480469 C 34.359375 544.457031 27.457031 539.941406 25.285156 538.570312 C 23.828125 537.648438 22.632812 536.921875 21.636719 536.324219 C 17.171875 533.601562 16.105469 532.949219 15.164062 529.195312 C 12.789062 519.636719 13.085938 517.3125 13.175781 516.546875 Z M 31.480469 498.105469 C 31.414062 498.34375 31.371094 498.507812 31.3125 498.691406 C 32.242188 500.191406 33.558594 502.328125 34.507812 503.871094 C 36.027344 506.355469 49.074219 515.148438 53.363281 518.046875 C 58.011719 521.175781 69.832031 529.5 74.308594 532.65625 C 74.363281 531.660156 74.445312 530.601562 74.539062 529.527344 C 74.90625 524.144531 75.597656 516.804688 76.683594 513.347656 C 76.703125 513.246094 76.730469 513.089844 76.738281 512.996094 C 72.550781 510.035156 47.582031 492.394531 40.484375 488.1875 C 38.476562 487.003906 37.039062 485.640625 36.109375 484.152344 C 34.5 488.078125 32.953125 492.707031 31.480469 498.105469 Z M 190.578125 578.167969 C 191.449219 574.453125 189.804688 573.394531 184.90625 570.894531 L 184.195312 570.523438 C 180.882812 568.8125 161.457031 557.554688 147.269531 549.339844 C 140.21875 545.246094 134.535156 541.953125 132.972656 541.082031 C 128.582031 538.605469 90.023438 516.730469 85.550781 514.046875 L 84.480469 513.402344 C 82.859375 512.410156 81.460938 511.554688 80.652344 511.554688 C 80.613281 511.554688 80.539062 511.5625 80.476562 511.570312 C 80.089844 511.984375 79.777344 512.335938 79.472656 512.695312 C 79.34375 512.921875 79.222656 513.136719 79.085938 513.476562 C 79.03125 513.59375 78.984375 513.761719 78.9375 513.90625 C 78.476562 516.695312 77.382812 523.6875 76.839844 529.785156 C 76.644531 532.597656 76.546875 534.878906 76.546875 535.707031 C 76.546875 537.429688 76.691406 538 80.191406 540.914062 C 81.839844 542.285156 89.730469 547.125 98.078125 552.238281 C 107.074219 557.746094 116.363281 563.449219 120.542969 566.421875 C 128.652344 572.207031 174.199219 594.945312 181.820312 598.570312 C 184.546875 599.867188 185.945312 600.132812 186.636719 600.132812 C 186.910156 600.132812 187.050781 600.089844 187.078125 600.089844 L 187.042969 599.675781 C 186.765625 593.207031 190.429688 578.757812 190.578125 578.167969 Z M 189.34375 598.882812 C 194.332031 601.230469 229.914062 618.015625 235.59375 620.71875 C 241.109375 623.34375 243.007812 623.800781 248.667969 625.164062 L 250.214844 625.542969 C 254.109375 626.488281 258.132812 624.640625 261.703125 623.011719 C 263.242188 622.304688 264.707031 621.640625 266.105469 621.199219 C 269.605469 620.105469 269.152344 617.125 269.070312 616.535156 C 269.164062 612.746094 268.003906 609.636719 265.628906 607.28125 C 261.84375 603.527344 255.59375 602.324219 251.070312 602.488281 C 243.84375 602.699219 237.769531 602.515625 237.710938 602.515625 L 192.492188 580.117188 C 191.597656 583.816406 189.296875 593.898438 189.34375 598.882812 Z M 773.878906 297.410156 L 772.699219 296.566406 L 772.679688 295.398438 C 772.625 292.378906 772.570312 289.382812 772.523438 286.769531 C 769.816406 288.839844 766.382812 292.277344 765.378906 296.234375 C 764.035156 301.558594 764.019531 309.316406 767.8125 315.6875 L 774.164062 310.703125 C 774.097656 308.320312 773.988281 303.023438 773.878906 297.410156 Z M 636.589844 473.472656 C 638.339844 474.363281 640.3125 474.8125 642.445312 474.8125 C 654.671875 474.8125 670.304688 460.972656 680.46875 441.148438 C 686.167969 430.035156 689.457031 418.34375 689.722656 408.21875 L 689.832031 404.4375 L 690.84375 404.988281 C 690.457031 395.476562 687.179688 388.503906 681.601562 385.644531 C 675.683594 382.597656 667.738281 384.273438 659.230469 390.296875 C 650.503906 396.488281 642.316406 406.496094 636.175781 418.472656 C 625.378906 439.519531 623.859375 461.007812 631.574219 470.703125 Z M 627.542969 468.503906 C 621.960938 456.976562 624.089844 436.945312 634.097656 417.414062 C 640.402344 405.117188 648.847656 394.804688 657.878906 388.402344 C 667.128906 381.835938 675.929688 380.125 682.660156 383.574219 C 689.28125 386.96875 693.035156 395.191406 693.183594 406.25 L 696.351562 407.957031 C 696.460938 401.621094 695.972656 391.054688 692.832031 387.390625 C 687.621094 381.3125 680.855469 376.113281 666.59375 379.25 C 650.660156 382.746094 641.976562 392.292969 633.847656 405.578125 C 630.625 410.828125 618.011719 442.398438 617.441406 458.183594 L 617.425781 458.835938 L 613.703125 460.925781 Z M 604.507812 462.082031 L 610.085938 458.945312 L 611.292969 459.609375 L 615.140625 457.445312 C 615.621094 448.738281 619.421875 435.738281 623.363281 424.683594 C 608.042969 434.136719 534.28125 479.570312 504.285156 495.8125 C 473.003906 512.75 383.578125 560.738281 371.785156 567.074219 C 372.257812 567.652344 372.6875 568.261719 373.085938 568.886719 C 377.585938 576.117188 375.957031 586.898438 374.492188 592.96875 C 420.609375 565.246094 573.574219 479.414062 604.507812 462.082031 Z M 312.339844 659.953125 C 314.082031 660.84375 316.050781 661.304688 318.1875 661.304688 C 330.421875 661.304688 346.054688 647.460938 356.21875 627.636719 C 361.863281 616.609375 365.148438 605 365.460938 594.917969 L 365.5625 592.664062 L 366.601562 592.664062 C 366.445312 582.546875 363.160156 575.105469 357.34375 572.132812 C 351.421875 569.089844 343.476562 570.765625 334.96875 576.789062 C 326.242188 582.980469 318.058594 592.988281 311.917969 604.964844 C 301.15625 625.945312 299.609375 647.359375 307.25 657.101562 Z M 303.207031 654.847656 C 297.722656 643.292969 299.875 623.34375 309.847656 603.898438 C 316.152344 591.597656 324.605469 581.285156 333.625 574.886719 C 342.871094 568.324219 351.679688 566.605469 358.410156 570.054688 C 365.085938 573.476562 368.832031 581.773438 368.933594 592.941406 L 371.722656 594.347656 C 373.113281 589.308594 375.652344 577.394531 371.113281 570.109375 C 365.128906 560.507812 348.484375 555.550781 335.152344 563.265625 C 321.648438 571.09375 308.03125 589.070312 304.957031 597.53125 C 303.75 600.84375 301.273438 606.628906 298.660156 612.746094 C 294.589844 622.285156 289.960938 633.101562 289.5 636.054688 C 288.972656 639.449219 288.230469 642.667969 285.699219 645.078125 Z M 19.695312 528.054688 C 20.175781 529.96875 20.175781 529.96875 24.078125 532.351562 C 25.082031 532.957031 26.296875 533.703125 27.777344 534.632812 C 29.953125 535.992188 36.894531 540.539062 46.117188 546.582031 C 69.972656 562.191406 109.910156 588.324219 121.621094 595.011719 C 137.566406 604.117188 228.855469 651.488281 235.503906 654.800781 C 240.300781 657.191406 241.957031 656.871094 245.539062 656.640625 L 246.238281 656.59375 C 250.410156 656.335938 255.445312 655.058594 255.59375 655.058594 C 256.539062 654.617188 274.023438 646.449219 279.722656 644.5625 L 282.640625 643.359375 L 283.496094 643.835938 C 285.722656 642.070312 286.617188 639.550781 287.207031 635.695312 C 287.703125 632.449219 292.1875 621.972656 296.523438 611.835938 C 297.03125 610.65625 297.519531 609.507812 298.007812 608.367188 C 294.242188 610.851562 288.015625 614.796875 283.515625 616.828125 L 282.558594 614.714844 C 288.597656 611.972656 298.265625 605.414062 299.664062 604.457031 C 300.96875 601.347656 302.09375 598.609375 302.773438 596.738281 C 306.042969 587.761719 319.835938 569.476562 334.003906 561.269531 C 346.671875 553.929688 362.175781 557.261719 370.210938 565.300781 C 379.335938 560.398438 471.363281 511.027344 503.199219 493.78125 C 535.476562 476.304688 618.695312 424.855469 624.667969 421.160156 C 627.671875 413.082031 630.550781 406.535156 631.878906 404.371094 C 640.320312 390.59375 649.371094 380.667969 666.105469 376.996094 C 674.953125 375.054688 681.234375 376.28125 685.726562 378.503906 C 701.136719 370.851562 765.65625 324.445312 766.308594 323.96875 L 767.671875 325.851562 C 765.058594 327.738281 705.703125 370.4375 688.113281 379.894531 C 691.148438 381.890625 693.191406 384.246094 694.609375 385.890625 C 698.367188 390.261719 698.78125 401.429688 698.707031 407.390625 L 784.789062 345.105469 C 783.933594 339.855469 785.949219 335.796875 787.917969 331.878906 C 788.738281 330.230469 789.59375 328.53125 790.21875 326.738281 C 792.320312 320.804688 792.464844 316.644531 792.035156 312.230469 C 791.839844 310.167969 790 308.9375 789.898438 308.863281 L 776.253906 299.105469 C 776.390625 305.984375 776.519531 311.980469 776.519531 311.980469 L 775.921875 311.992188 L 776.058594 312.164062 L 767.269531 319.082031 L 766.566406 318.054688 C 761.671875 310.871094 761.585938 301.773438 763.132812 295.664062 C 764.449219 290.476562 769.257812 286.089844 772.496094 283.9375 C 772.480469 282.28125 772.460938 280.917969 772.460938 280.035156 C 772.460938 275.914062 770.730469 272.144531 762.683594 265.898438 C 759.855469 266.882812 754.121094 269.171875 747.703125 273.449219 C 739.628906 278.820312 716.578125 292.949219 706.726562 298.976562 L 703.46875 300.972656 L 702.253906 298.992188 L 705.511719 296.988281 C 714.496094 291.488281 738.378906 276.863281 746.414062 271.507812 C 752.113281 267.710938 757.242188 265.4375 760.464844 264.214844 C 760.308594 264.105469 760.199219 264.011719 760.042969 263.902344 C 748.074219 255.265625 687.089844 211.488281 662.601562 198.398438 C 639.070312 185.824219 567.0625 152.160156 559.773438 148.765625 C 543.515625 150.761719 495.191406 171.953125 484.667969 176.636719 C 501.875 183.652344 555.871094 207.679688 572.191406 217.46875 C 589.640625 227.925781 622.597656 245.367188 644.304688 258.144531 C 666.015625 270.929688 700.910156 303.078125 700.910156 303.078125 C 699.359375 303.464844 612.894531 285.25 588.855469 284.875 C 588.855469 284.875 553.953125 253.882812 508.207031 227.152344 C 468.195312 203.78125 438.265625 193.441406 426.195312 190.304688 C 420.230469 192.539062 414.496094 194.941406 410.398438 197.066406 C 398.808594 203.054688 340.605469 235.808594 317.847656 249.292969 C 295.355469 262.621094 254.625 294.332031 254.164062 294.6875 C 246.375 300.417969 210.046875 329.476562 174.90625 357.589844 C 140.410156 385.183594 107.835938 411.242188 102.910156 414.710938 C 94.25 420.828125 59.871094 455.359375 46.917969 468.367188 L 43.308594 471.988281 C 41.238281 474.058594 39.242188 477.195312 37.335938 481.335938 C 37.777344 483.121094 39.230469 484.757812 41.679688 486.203125 C 43.234375 487.121094 45.601562 488.65625 48.382812 490.507812 C 78.121094 447.550781 171.757812 379.554688 172.714844 378.863281 L 174.078125 380.75 C 173.121094 381.441406 79.8125 449.195312 50.316406 491.8125 C 60.359375 498.574219 74.328125 508.445312 77.851562 510.9375 C 78.164062 510.488281 78.542969 510.082031 79.003906 509.777344 C 89.441406 498.820312 122.984375 470.058594 140.960938 458.203125 L 145.484375 455.25 C 151.625 451.257812 159.945312 445.902344 168.792969 440.238281 L 170.046875 442.195312 C 161.207031 447.851562 152.882812 453.207031 146.753906 457.191406 L 142.242188 460.132812 C 125.210938 471.363281 94.195312 497.792969 82.382812 509.640625 C 83.359375 510.027344 84.417969 510.632812 85.695312 511.425781 L 86.753906 512.058594 C 91.21875 514.746094 129.738281 536.601562 134.132812 539.066406 C 135.6875 539.949219 141.375 543.242188 148.449219 547.335938 C 162.617188 555.550781 182.015625 566.78125 185.273438 568.453125 L 185.980469 568.824219 C 190.050781 570.902344 193.328125 572.601562 193.097656 576.925781 C 202.488281 566.707031 237.335938 536.710938 255.8125 524.53125 C 260.949219 521.148438 269.097656 515.886719 278.25 510.027344 L 279.5 511.976562 C 270.359375 517.835938 262.222656 523.085938 257.09375 526.472656 C 238.625 538.640625 203.75 568.667969 194.710938 578.609375 L 237.484375 599.90625 C 246.046875 590.28125 281.875 559.367188 300.714844 546.949219 C 319.308594 534.6875 378.269531 497.339844 378.867188 496.964844 L 380.109375 498.921875 C 379.519531 499.300781 320.570312 536.644531 301.992188 548.890625 C 284.03125 560.726562 250.472656 589.519531 240.328125 600.234375 C 242.75 600.261719 246.652344 600.28125 251.007812 600.144531 C 256.035156 599.949219 262.964844 601.339844 267.277344 605.617188 C 270.109375 608.441406 271.5 612.128906 271.371094 616.324219 C 271.75 618.164062 271.269531 622.007812 266.796875 623.40625 C 265.535156 623.800781 264.136719 624.4375 262.671875 625.117188 C 259.550781 626.542969 256.097656 628.117188 252.460938 628.117188 C 251.539062 628.117188 250.613281 628.015625 249.671875 627.785156 L 248.117188 627.40625 C 242.445312 626.046875 240.316406 625.53125 234.59375 622.808594 C 229.125 620.207031 195.933594 604.558594 189.058594 601.320312 C 189.019531 601.386719 189.011719 601.449219 188.964844 601.515625 C 188.625 601.957031 187.953125 602.488281 186.664062 602.488281 C 185.28125 602.488281 183.386719 601.910156 180.84375 600.695312 C 173.195312 597.054688 127.429688 574.203125 119.21875 568.335938 C 115.109375 565.410156 105.425781 559.476562 96.890625 554.234375 C 88.097656 548.851562 80.511719 544.199219 78.726562 542.71875 C 75.191406 539.773438 74.234375 538.570312 74.234375 535.726562 C 74.234375 535.660156 74.234375 535.542969 74.234375 535.460938 C 71.527344 533.546875 57.277344 523.5 52.066406 519.980469 C 43.28125 514.054688 34.09375 507.664062 32.527344 505.09375 C 31.828125 503.945312 30.917969 502.472656 30.109375 501.167969 C 27.703125 504.269531 22.023438 508.019531 21.960938 508.058594 C 20.671875 508.859375 18.101562 514.773438 17.796875 517.128906 C 17.726562 517.652344 17.667969 519.980469 19.695312 528.054688 Z M 19.695312 528.054688 " fill-opacity="1" fill-rule="evenodd"/></g><path d="M 671.511719 393.097656 C 673.347656 393.097656 675.046875 393.488281 676.566406 394.265625 C 681.4375 396.742188 684.007812 402.824219 683.808594 411.386719 C 683.613281 419.65625 680.855469 429.339844 676.050781 438.667969 C 667.695312 454.882812 654.988281 466.203125 645.164062 466.203125 C 643.324219 466.203125 641.632812 465.808594 640.109375 465.042969 C 630.183594 459.980469 630.414062 440.484375 640.632812 420.640625 C 648.996094 404.425781 661.6875 393.097656 671.511719 393.097656 Z M 641.175781 462.984375 C 642.359375 463.589844 643.703125 463.898438 645.171875 463.898438 C 654.023438 463.898438 666.144531 452.84375 673.992188 437.617188 C 678.640625 428.589844 681.308594 419.261719 681.492188 411.332031 C 681.675781 403.710938 679.550781 398.378906 675.515625 396.320312 C 674.332031 395.71875 672.980469 395.40625 671.519531 395.40625 C 662.679688 395.40625 650.566406 406.460938 642.71875 421.691406 C 633.398438 439.753906 632.703125 458.664062 641.175781 462.984375 Z M 641.175781 462.984375 " fill-opacity="1" fill-rule="evenodd"/><path d="M 347.636719 579.261719 C 349.464844 579.261719 351.164062 579.660156 352.691406 580.445312 C 357.558594 582.949219 360.132812 589.105469 359.929688 597.765625 C 359.738281 606.117188 356.980469 615.925781 352.175781 625.359375 C 343.820312 641.765625 331.113281 653.214844 321.289062 653.214844 C 319.460938 653.214844 317.761719 652.820312 316.234375 652.042969 C 306.300781 646.921875 306.539062 627.191406 316.769531 607.125 C 325.113281 590.710938 337.804688 579.261719 347.636719 579.261719 Z M 317.292969 649.964844 C 318.476562 650.574219 319.828125 650.886719 321.289062 650.886719 C 330.136719 650.886719 342.257812 639.714844 350.117188 624.296875 C 354.765625 615.175781 357.421875 605.730469 357.605469 597.71875 C 357.789062 590 355.667969 584.613281 351.632812 582.53125 C 350.449219 581.914062 349.105469 581.609375 347.644531 581.609375 C 338.796875 581.609375 326.683594 592.792969 318.835938 608.199219 C 309.515625 626.453125 308.808594 645.582031 317.292969 649.964844 Z M 317.292969 649.964844 " fill-opacity="1" fill-rule="evenodd"/><path d="M 483.867188 328.253906 C 466.414062 338.0625 448.359375 348.210938 439.144531 359.945312 L 437.296875 358.53125 C 446.808594 346.429688 465.066406 336.164062 482.714844 326.246094 C 485.785156 324.511719 488.847656 322.796875 491.847656 321.070312 C 511.855469 309.59375 574.382812 285.382812 575.011719 285.136719 L 575.859375 287.28125 C 575.230469 287.527344 512.878906 311.671875 493.019531 323.0625 C 490.019531 324.792969 486.949219 326.519531 483.867188 328.253906 Z M 483.867188 328.253906 " fill-opacity="1" fill-rule="evenodd"/><path d="M 339.675781 606 C 342.800781 607.597656 342.90625 613.207031 339.917969 619.03125 C 337.519531 623.714844 333.921875 626.863281 330.945312 626.863281 C 330.320312 626.863281 329.734375 626.730469 329.199219 626.457031 C 326.082031 624.851562 325.976562 619.242188 328.960938 613.414062 C 331.863281 607.75 336.613281 604.4375 339.675781 606 Z M 330.292969 624.328125 C 331.777344 625.078125 335.300781 622.816406 337.792969 617.945312 C 340.164062 613.3125 340.164062 608.941406 338.578125 608.128906 C 338.378906 608.023438 338.171875 607.976562 337.925781 607.976562 C 336.226562 607.976562 333.261719 610.273438 331.085938 614.503906 C 328.714844 619.144531 328.714844 623.515625 330.292969 624.328125 Z M 330.292969 624.328125 " fill-opacity="1" fill-rule="evenodd"/><path d="M 663.6875 419.820312 C 666.632812 421.355469 666.738281 426.738281 663.917969 432.332031 C 661.652344 436.828125 658.253906 439.851562 655.441406 439.851562 C 654.851562 439.851562 654.300781 439.722656 653.792969 439.460938 C 650.847656 437.925781 650.75 432.539062 653.558594 426.9375 C 656.308594 421.5 660.804688 418.320312 663.6875 419.820312 Z M 654.828125 437.417969 C 656.226562 438.144531 659.554688 435.953125 661.910156 431.289062 C 664.152344 426.839844 664.152344 422.644531 662.652344 421.863281 C 662.464844 421.769531 662.269531 421.714844 662.035156 421.714844 C 660.429688 421.714844 657.621094 423.914062 655.574219 427.980469 C 653.335938 432.441406 653.335938 436.636719 654.828125 437.417969 Z M 654.828125 437.417969 " fill-opacity="1" fill-rule="evenodd"/></svg>