<svg xmlns="http://www.w3.org/2000/svg" xmlns:xlink="http://www.w3.org/1999/xlink" width="1080" zoomAndPan="magnify" viewBox="0 0 810 809.999993" height="1080" preserveAspectRatio="xMidYMid meet" version="1.0"><defs><clipPath id="e02ebea27b"><path d="M 101.363281 12.765625 L 708 12.765625 L 708 797.230469 L 101.363281 797.230469 Z M 101.363281 12.765625 " clip-rule="nonzero"/></clipPath></defs><g clip-path="url(#e02ebea27b)"><path d="M 117.050781 797.226562 L 691.433594 797.226562 C 700.066406 797.226562 707.125 790.171875 707.125 781.539062 L 707.125 140.792969 C 707.125 140.476562 706.972656 140.15625 706.972656 139.855469 C 706.804688 138.429688 706.65625 137.175781 706.183594 135.765625 C 706.035156 135.296875 705.867188 134.828125 705.714844 134.355469 C 704.929688 132.628906 703.988281 131.054688 702.582031 129.8125 L 590.273438 17.476562 C 588.863281 16.066406 587.289062 15.113281 585.714844 14.339844 C 585.246094 14.175781 584.777344 14.023438 584.15625 13.871094 C 582.898438 13.386719 581.488281 13.234375 580.230469 13.082031 C 579.761719 12.917969 579.445312 12.765625 579.140625 12.765625 L 117.050781 12.765625 C 108.417969 12.765625 101.363281 19.824219 101.363281 28.453125 L 101.363281 781.539062 C 101.363281 790.171875 108.417969 797.226562 117.050781 797.226562 Z M 594.816406 66.269531 L 653.484375 124.9375 L 594.664062 124.9375 L 594.664062 66.269531 Z M 132.726562 44.144531 L 563.453125 44.144531 L 563.453125 140.792969 C 563.453125 149.425781 570.511719 156.484375 579.140625 156.484375 L 675.761719 156.484375 L 675.761719 765.851562 L 132.726562 765.851562 Z M 132.726562 44.144531 " fill-opacity="1" fill-rule="evenodd"/></g><path d="M 404.242188 327.246094 C 384.796875 327.246094 368.972656 311.359375 368.972656 291.839844 C 368.972656 283.179688 361.914062 276.105469 353.285156 276.105469 C 344.667969 276.105469 337.609375 283.179688 337.609375 291.839844 C 337.609375 323.308594 359.402344 349.449219 388.570312 356.6875 L 388.570312 365.03125 C 388.570312 373.679688 395.625 380.765625 404.242188 380.765625 C 412.859375 380.765625 419.917969 373.679688 419.917969 365.03125 L 419.917969 356.6875 C 449.085938 349.601562 470.875 323.308594 470.875 291.839844 C 470.875 252.328125 441.238281 236.746094 409.253906 225.738281 C 373.667969 213.605469 368.972656 200.550781 368.972656 189.527344 C 368.972656 170.007812 384.796875 154.121094 404.242188 154.121094 C 423.6875 154.121094 439.527344 170.007812 439.527344 189.527344 C 439.527344 198.1875 446.570312 205.261719 455.203125 205.261719 C 463.820312 205.261719 470.875 198.1875 470.875 189.527344 C 470.875 158.058594 449.085938 131.917969 419.917969 124.679688 L 419.917969 116.335938 C 419.917969 107.6875 412.859375 100.601562 404.242188 100.601562 C 395.625 100.601562 388.570312 107.6875 388.570312 116.335938 L 388.570312 124.679688 C 359.402344 131.765625 337.609375 158.058594 337.609375 189.527344 C 337.609375 234.550781 384.011719 250.285156 399.230469 255.632812 C 433.242188 267.277344 439.527344 277.042969 439.527344 291.839844 C 439.527344 311.511719 423.6875 327.246094 404.242188 327.246094 Z M 404.242188 327.246094 " fill-opacity="1" fill-rule="evenodd"/><path d="M 600.570312 435.285156 L 206.402344 435.285156 C 197.769531 435.285156 190.710938 442.433594 190.710938 451.1875 C 190.710938 459.941406 197.769531 467.085938 206.402344 467.085938 L 600.570312 467.085938 C 609.203125 467.085938 616.261719 459.941406 616.261719 451.1875 C 616.261719 442.433594 609.203125 435.285156 600.570312 435.285156 Z M 600.570312 435.285156 " fill-opacity="1" fill-rule="evenodd"/><path d="M 600.570312 544.324219 L 206.402344 544.324219 C 197.769531 544.324219 190.710938 551.46875 190.710938 560.222656 C 190.710938 568.976562 197.769531 576.125 206.402344 576.125 L 600.570312 576.125 C 609.203125 576.125 616.261719 568.976562 616.261719 560.222656 C 616.261719 551.46875 609.203125 544.324219 600.570312 544.324219 Z M 600.570312 544.324219 " fill-opacity="1" fill-rule="evenodd"/><path d="M 600.570312 653.359375 L 206.402344 653.359375 C 197.769531 653.359375 190.710938 660.507812 190.710938 669.261719 C 190.710938 678.015625 197.769531 685.164062 206.402344 685.164062 L 600.570312 685.164062 C 609.203125 685.164062 616.261719 678.015625 616.261719 669.261719 C 616.261719 660.507812 609.203125 653.359375 600.570312 653.359375 Z M 600.570312 653.359375 " fill-opacity="1" fill-rule="evenodd"/></svg>