<svg xmlns="http://www.w3.org/2000/svg" xmlns:xlink="http://www.w3.org/1999/xlink" width="1080" zoomAndPan="magnify" viewBox="0 0 810 809.999993" height="1080" preserveAspectRatio="xMidYMid meet" version="1.0"><defs><clipPath id="166faa5242"><path d="M 13.113281 71.125 L 796.863281 71.125 L 796.863281 738.625 L 13.113281 738.625 Z M 13.113281 71.125 " clip-rule="nonzero"/></clipPath></defs><g clip-path="url(#166faa5242)"><path d="M 782.363281 71.125 L 259.859375 71.125 C 255.4375 71.125 251.273438 73.125 248.515625 76.566406 L 16.300781 366.890625 C 14.238281 369.46875 13.113281 372.667969 13.113281 375.96875 L 13.113281 724.355469 C 13.113281 732.386719 19.613281 738.871094 27.628906 738.871094 L 782.363281 738.871094 C 790.394531 738.871094 796.875 732.386719 796.875 724.355469 L 796.875 85.640625 C 796.875 77.621094 790.394531 71.125 782.363281 71.125 Z M 767.847656 709.839844 L 42.144531 709.839844 L 42.144531 381.058594 L 266.820312 100.15625 L 767.847656 100.15625 Z M 767.847656 709.839844 " fill-opacity="1" fill-rule="evenodd"/></g><path d="M 102.292969 381.523438 C 104.757812 386.433594 109.785156 389.527344 115.273438 389.527344 L 724.367188 389.527344 C 732.382812 389.527344 738.867188 383.042969 738.867188 375.066406 L 738.867188 143.597656 C 738.867188 135.617188 732.382812 129.132812 724.367188 129.132812 L 289.300781 129.132812 C 284.738281 129.132812 280.445312 131.273438 277.699219 134.921875 L 103.671875 366.375 C 100.386719 370.757812 99.84375 376.625 102.292969 381.523438 Z M 296.558594 158.0625 L 709.863281 158.0625 L 709.863281 360.601562 L 144.277344 360.601562 Z M 296.558594 158.0625 " fill-opacity="1" fill-rule="evenodd"/><path d="M 695.953125 419.175781 C 687.910156 419.175781 681.414062 425.660156 681.414062 433.679688 L 681.414062 448.179688 L 535.929688 448.179688 L 535.929688 433.679688 C 535.929688 425.660156 529.429688 419.175781 521.386719 419.175781 C 513.34375 419.175781 506.832031 425.660156 506.832031 433.679688 L 506.832031 462.683594 C 506.832031 470.703125 513.34375 477.1875 521.386719 477.1875 L 695.953125 477.1875 C 704.011719 477.1875 710.507812 470.703125 710.507812 462.683594 L 710.507812 433.679688 C 710.507812 425.660156 704.011719 419.175781 695.953125 419.175781 Z M 695.953125 419.175781 " fill-opacity="1" fill-rule="evenodd"/><path d="M 647.613281 191.398438 C 641.941406 185.722656 632.777344 185.722656 627.105469 191.398438 C 621.433594 197.066406 621.433594 206.234375 627.105469 211.90625 L 656.109375 240.898438 C 658.933594 243.734375 662.644531 245.152344 666.355469 245.152344 C 670.070312 245.152344 673.78125 243.734375 676.605469 240.898438 C 682.277344 235.238281 682.277344 226.074219 676.605469 220.402344 Z M 647.613281 191.398438 " fill-opacity="1" fill-rule="evenodd"/><path d="M 590.238281 220.402344 L 561.246094 191.398438 C 555.574219 185.722656 546.40625 185.722656 540.734375 191.398438 C 535.0625 197.066406 535.0625 206.234375 540.734375 211.90625 L 569.742188 240.898438 C 572.5625 243.734375 576.277344 245.152344 579.988281 245.152344 C 583.699219 245.152344 587.414062 243.734375 590.238281 240.898438 C 595.910156 235.238281 595.910156 226.074219 590.238281 220.402344 Z M 590.238281 220.402344 " fill-opacity="1" fill-rule="evenodd"/><path d="M 619.0625 249.367188 C 613.441406 243.746094 604.339844 243.746094 598.707031 249.367188 C 593.085938 255 593.085938 264.101562 598.707031 269.722656 L 656.289062 327.304688 C 659.101562 330.113281 662.773438 331.519531 666.460938 331.519531 C 670.148438 331.519531 673.832031 330.113281 676.644531 327.304688 C 682.265625 321.671875 682.265625 312.570312 676.644531 306.949219 Z M 619.0625 249.367188 " fill-opacity="1" fill-rule="evenodd"/></svg>