<svg xmlns="http://www.w3.org/2000/svg" xmlns:xlink="http://www.w3.org/1999/xlink" width="1080" zoomAndPan="magnify" viewBox="0 0 810 809.999993" height="1080" preserveAspectRatio="xMidYMid meet" version="1.0"><defs><clipPath id="8baac28715"><path d="M 13.117188 204.355469 L 796.863281 204.355469 L 796.863281 605.605469 L 13.117188 605.605469 Z M 13.117188 204.355469 " clip-rule="nonzero"/></clipPath></defs><g clip-path="url(#8baac28715)"><path d="M 663.816406 384.820312 L 140.617188 384.820312 C 130.425781 384.820312 122.136719 393.140625 122.136719 403.382812 C 122.136719 413.621094 130.425781 421.9375 140.617188 421.9375 L 663.816406 421.9375 C 674.003906 421.9375 682.296875 413.621094 682.296875 403.382812 C 682.296875 393.140625 674.003906 384.820312 663.816406 384.820312 Z M 775.328125 251.070312 C 753.664062 221.632812 720.527344 204.355469 684.207031 204.355469 L 125.960938 204.355469 C 89.640625 204.355469 56.503906 220.996094 34.824219 251.070312 C 13.164062 280.507812 7.425781 317.625 18.898438 352.183594 L 70.515625 511.53125 C 88.996094 567.847656 140.617188 605.605469 199.238281 605.605469 L 610.285156 605.605469 C 668.910156 605.605469 720.527344 567.847656 739.007812 511.53125 L 790.625 352.183594 C 802.726562 317.625 797.003906 280.507812 775.328125 251.070312 Z M 756.21875 340.664062 L 704.601562 500.011719 C 691.214844 540.96875 653.609375 568.488281 610.910156 568.488281 L 199.882812 568.488281 C 157.183594 568.488281 119.578125 540.96875 106.210938 500.011719 L 54.589844 340.664062 C 46.941406 317.625 50.765625 292.667969 65.421875 272.828125 C 80.078125 252.992188 101.742188 241.472656 126.601562 241.472656 L 685.476562 241.472656 C 709.695312 241.472656 732 252.992188 746.65625 272.828125 C 760.042969 292.667969 763.867188 317.625 756.21875 340.664062 Z M 193.503906 344.503906 C 203.707031 344.503906 211.984375 336.1875 211.984375 325.945312 L 211.984375 302.90625 C 211.984375 292.667969 203.707031 284.347656 193.503906 284.347656 C 183.316406 284.347656 175.023438 292.667969 175.023438 302.90625 L 175.023438 325.945312 C 175.023438 336.1875 183.316406 344.503906 193.503906 344.503906 Z M 298.023438 344.503906 C 308.210938 344.503906 316.503906 336.1875 316.503906 325.945312 L 316.503906 302.90625 C 316.503906 292.667969 308.210938 284.347656 298.023438 284.347656 C 287.820312 284.347656 279.542969 292.667969 279.542969 302.90625 L 279.542969 325.945312 C 279.542969 336.1875 287.820312 344.503906 298.023438 344.503906 Z M 403.171875 344.503906 C 413.359375 344.503906 421.652344 336.1875 421.652344 325.945312 L 421.652344 302.90625 C 421.652344 292.667969 413.359375 284.347656 403.171875 284.347656 C 392.96875 284.347656 384.691406 292.667969 384.691406 302.90625 L 384.691406 325.945312 C 384.691406 336.1875 392.96875 344.503906 403.171875 344.503906 Z M 507.675781 344.503906 C 517.882812 344.503906 526.15625 336.1875 526.15625 325.945312 L 526.15625 302.90625 C 526.15625 292.667969 517.882812 284.347656 507.675781 284.347656 C 497.488281 284.347656 489.195312 292.667969 489.195312 302.90625 L 489.195312 325.945312 C 489.195312 336.1875 497.488281 344.503906 507.675781 344.503906 Z M 612.824219 344.503906 C 623.027344 344.503906 631.304688 336.1875 631.304688 325.945312 L 631.304688 302.90625 C 631.304688 292.667969 623.027344 284.347656 612.824219 284.347656 C 602.636719 284.347656 594.34375 292.667969 594.34375 302.90625 L 594.34375 325.945312 C 594.34375 336.1875 602.636719 344.503906 612.824219 344.503906 Z M 193.503906 461.617188 C 183.316406 461.617188 175.023438 469.933594 175.023438 480.175781 L 175.023438 503.210938 C 175.023438 513.453125 183.316406 521.773438 193.503906 521.773438 C 203.707031 521.773438 211.984375 513.453125 211.984375 503.210938 L 211.984375 480.175781 C 211.984375 469.933594 203.707031 461.617188 193.503906 461.617188 Z M 298.023438 461.617188 C 287.820312 461.617188 279.542969 469.933594 279.542969 480.175781 L 279.542969 503.210938 C 279.542969 513.453125 287.820312 521.773438 298.023438 521.773438 C 308.210938 521.773438 316.503906 513.453125 316.503906 503.210938 L 316.503906 480.175781 C 316.503906 469.933594 308.210938 461.617188 298.023438 461.617188 Z M 403.171875 461.617188 C 392.96875 461.617188 384.691406 469.933594 384.691406 480.175781 L 384.691406 503.210938 C 384.691406 513.453125 392.96875 521.773438 403.171875 521.773438 C 413.359375 521.773438 421.652344 513.453125 421.652344 503.210938 L 421.652344 480.175781 C 421.652344 469.933594 413.359375 461.617188 403.171875 461.617188 Z M 507.675781 461.617188 C 497.488281 461.617188 489.195312 469.933594 489.195312 480.175781 L 489.195312 503.210938 C 489.195312 513.453125 497.488281 521.773438 507.675781 521.773438 C 517.882812 521.773438 526.15625 513.453125 526.15625 503.210938 L 526.15625 480.175781 C 526.15625 469.933594 517.882812 461.617188 507.675781 461.617188 Z M 612.824219 461.617188 C 602.636719 461.617188 594.34375 469.933594 594.34375 480.175781 L 594.34375 503.210938 C 594.34375 513.453125 602.636719 521.773438 612.824219 521.773438 C 623.027344 521.773438 631.304688 513.453125 631.304688 503.210938 L 631.304688 480.175781 C 631.304688 469.933594 623.027344 461.617188 612.824219 461.617188 Z M 612.824219 461.617188 " fill-opacity="1" fill-rule="evenodd"/></g></svg>