<svg xmlns="http://www.w3.org/2000/svg" xmlns:xlink="http://www.w3.org/1999/xlink" width="1080" zoomAndPan="magnify" viewBox="0 0 810 809.999993" height="1080" preserveAspectRatio="xMidYMid meet" version="1.0"><defs><clipPath id="be4a2fdb07"><path d="M 93.027344 12.058594 L 717.027344 12.058594 L 717.027344 798.054688 L 93.027344 798.054688 Z M 93.027344 12.058594 " clip-rule="nonzero"/></clipPath></defs><g clip-path="url(#be4a2fdb07)"><path d="M 404.214844 35.183594 C 330.828125 35.183594 260.046875 41.445312 193.46875 53.0625 L 138.515625 64.347656 L 137.800781 68.042969 C 134.007812 91.117188 131.101562 114.789062 129.148438 138.953125 L 126.210938 211.910156 L 126.179688 211.910156 L 126.179688 212.828125 L 126.210938 214.445312 L 126.242188 214.441406 L 127.449219 258.726562 C 140.660156 500.570312 250.851562 697.082031 394.371094 744.824219 L 404.960938 747.457031 L 415.570312 744.824219 C 487.320312 720.957031 550.753906 659.890625 597.894531 574.5625 L 604.609375 561.042969 L 595.625 552.558594 L 595.480469 552.558594 L 591.144531 555.527344 L 589.128906 560.28125 L 582.492188 563.398438 L 556.660156 565.335938 L 552.183594 568.746094 L 552.484375 573.949219 L 546.609375 574.246094 L 548.785156 580.328125 L 554.339844 583.597656 L 561.296875 591.621094 L 555.738281 596.074219 L 544.75 596.960938 L 533.621094 615.535156 L 532.382812 624.886719 L 532.542969 625.484375 L 510.421875 606.914062 L 495.117188 600.085938 L 478.875 599.34375 L 460.011719 608.839844 L 428.777344 602.316406 L 410.851562 593.847656 L 401.882812 592.511719 L 375.269531 582.253906 L 357.644531 568.746094 L 342.960938 567.261719 L 331.210938 562.507812 L 325.476562 554.925781 L 306.773438 543.949219 L 294.246094 525.230469 L 300.121094 520.925781 L 297.34375 516.324219 L 303.375 510.382812 L 303.519531 504.429688 L 297.960938 499.691406 L 295.644531 487.355469 L 271.507812 457.058594 L 258.378906 443.839844 L 253.582031 432.851562 L 236.261719 422.011719 L 239.976562 411.617188 L 236.417969 405.074219 L 232.242188 404.628906 L 228.6875 398.101562 L 220.015625 389.339844 L 220.953125 380.136719 L 211.679688 377.457031 L 197.757812 356.957031 L 190.644531 338.691406 L 187.546875 322.507812 L 188.785156 314.78125 L 178.273438 305.128906 L 172.859375 305.71875 L 164.507812 299.480469 L 162.191406 305.425781 L 163.570312 321.609375 L 160.953125 329.035156 L 179.65625 359.042969 L 184.148438 367.503906 L 185.546875 377.160156 L 191.5625 384.285156 L 196.058594 394.242188 L 203.171875 404.488281 L 204.871094 414.136719 L 209.507812 423.9375 L 208.886719 430.175781 L 214 436.863281 L 210.902344 439.683594 L 214.460938 447.847656 L 221.414062 448.445312 L 232.703125 466.566406 L 222.191406 474.882812 L 217.398438 462.113281 L 196.835938 439.683594 L 186.164062 433.742188 L 190.960938 428.105469 L 191.882812 418.738281 L 188.785156 408.945312 L 181.054688 403.296875 L 176.257812 396.316406 L 169.460938 395.425781 L 158.171875 385.773438 L 156.316406 379.238281 L 149.203125 371.667969 L 158.332031 374.78125 L 165.746094 371.070312 L 166.828125 363.347656 L 151.21875 340.03125 L 143.644531 335.574219 L 144.246094 324.4375 L 140.546875 322.207031 L 141.769531 314.339844 L 137.453125 308.695312 L 138.214844 304.089844 L 131.101562 278.390625 L 131.261719 278.542969 L 164.96875 282.101562 L 176.417969 290.71875 L 221.253906 317.601562 L 259.917969 321.464844 L 264.554688 319.835938 L 266.269531 314.78125 L 295.023438 318.042969 L 304.296875 329.628906 L 315.746094 338.984375 L 319.300781 354.429688 L 333.527344 368.246094 L 337.863281 370.320312 L 342.640625 368.835938 L 351.613281 356.21875 L 366.457031 356.511719 L 371.09375 358.300781 L 381.304688 369.28125 L 387.179688 383.402344 L 399.867188 399.289062 L 402.960938 409.539062 L 408.679688 418.445312 L 421.96875 424.539062 L 441.148438 428.25 L 441.464844 428.402344 L 435.734375 437.605469 L 430.476562 455.433594 L 430.796875 482.15625 L 428 489.582031 L 430.9375 498.492188 L 439.609375 504.289062 L 436.8125 510.230469 L 439.765625 517.664062 L 450.117188 529.242188 L 465.425781 552.417969 L 483.066406 557.761719 L 489.242188 563.546875 L 515.21875 557.902344 L 525.269531 553.003906 L 535.621094 554.046875 L 535.796875 556.871094 L 545.847656 553.457031 L 543.988281 549.140625 L 555.277344 541.121094 L 554.800781 533.699219 L 557.277344 527.753906 L 558.976562 509.9375 L 564.550781 506.671875 L 598.417969 497.007812 L 614.183594 497.304688 L 618.820312 499.832031 L 619.441406 507.113281 L 612.804688 514.984375 L 610.789062 524.042969 L 608.628906 552.257812 L 607.390625 555.476562 L 620.074219 529.9375 C 626.984375 514.429688 633.414062 498.304688 639.304688 481.628906 L 646.78125 458.273438 L 638.160156 438.183594 C 575.347656 317.15625 396.640625 226.730469 179.832031 213.535156 L 142.296875 212.398438 L 187.640625 206.625 C 253.042969 199.996094 320.746094 196.519531 390.085938 196.519531 C 459.4375 196.519531 527.144531 199.996094 592.542969 206.625 L 683.699219 218.230469 L 683.871094 212.828125 C 683.871094 162.730469 679.839844 114.191406 672.25 68.042969 L 671.597656 64.691406 L 614.980469 53.0625 C 548.402344 41.445312 477.621094 35.183594 404.214844 35.183594 Z M 404.121094 12.058594 C 486.242188 12.058594 565.441406 18.871094 639.9375 31.523438 L 703.277344 44.183594 L 704.007812 47.828125 C 712.5 98.070312 717.027344 150.917969 717.027344 205.457031 C 717.027344 496.335938 588.175781 739.03125 416.886719 795.15625 L 405.027344 798.054688 L 393.164062 795.15625 C 221.875 739.03125 93.027344 496.335938 93.027344 205.457031 C 93.027344 150.917969 97.550781 98.070312 106.046875 47.828125 L 106.839844 43.808594 L 168.320312 31.523438 C 242.800781 18.871094 322.015625 12.058594 404.121094 12.058594 Z M 404.121094 12.058594 " fill-opacity="1" fill-rule="evenodd"/></g></svg>