<svg xmlns="http://www.w3.org/2000/svg" xmlns:xlink="http://www.w3.org/1999/xlink" width="1080" zoomAndPan="magnify" viewBox="0 0 810 809.999993" height="1080" preserveAspectRatio="xMidYMid meet" version="1.0"><defs><clipPath id="edf183f94d"><path d="M 13.113281 134.292969 L 796.863281 134.292969 L 796.863281 675.707031 L 13.113281 675.707031 Z M 13.113281 134.292969 " clip-rule="nonzero"/></clipPath></defs><g clip-path="url(#edf183f94d)"><path d="M 13.113281 218.304688 L 13.113281 591.695312 C 13.113281 638.089844 50.71875 675.707031 97.085938 675.707031 L 712.90625 675.707031 C 759.273438 675.707031 796.875 638.089844 796.875 591.695312 L 796.875 218.304688 C 796.875 171.90625 759.273438 134.292969 712.90625 134.292969 L 97.085938 134.292969 C 50.71875 134.292969 13.113281 171.90625 13.113281 218.304688 Z M 712.90625 619.695312 L 97.085938 619.695312 C 81.628906 619.695312 69.101562 607.164062 69.101562 591.695312 L 69.101562 320.988281 L 740.890625 320.988281 L 740.890625 591.695312 C 740.890625 607.164062 728.363281 619.695312 712.90625 619.695312 Z M 740.890625 218.304688 L 740.890625 264.976562 L 69.101562 264.976562 L 69.101562 218.304688 C 69.101562 202.835938 81.628906 190.300781 97.085938 190.300781 L 712.90625 190.300781 C 728.363281 190.300781 740.890625 202.835938 740.890625 218.304688 Z M 740.890625 218.304688 " fill-opacity="1" fill-rule="evenodd"/></g><path d="M 282.972656 368.90625 L 135.140625 368.90625 C 119.722656 368.90625 107.21875 381.40625 107.21875 396.832031 L 107.21875 544.65625 C 107.21875 560.074219 119.722656 572.578125 135.140625 572.578125 L 282.972656 572.578125 C 298.390625 572.578125 310.894531 560.074219 310.894531 544.65625 L 310.894531 396.832031 C 310.894531 381.40625 298.390625 368.90625 282.972656 368.90625 Z M 255.035156 516.722656 L 163.074219 516.722656 L 163.074219 424.757812 L 254.945312 424.757812 Z M 255.035156 516.722656 " fill-opacity="1" fill-rule="evenodd"/><path d="M 665.816406 488.789062 L 396.835938 488.789062 C 381.40625 488.789062 368.902344 501.203125 368.902344 516.503906 C 368.902344 531.804688 381.40625 544.21875 396.835938 544.21875 L 665.816406 544.21875 C 681.246094 544.21875 693.75 531.804688 693.75 516.503906 C 693.75 501.203125 681.246094 488.789062 665.816406 488.789062 Z M 665.816406 488.789062 " fill-opacity="1" fill-rule="evenodd"/><path d="M 665.816406 395.976562 L 396.835938 395.976562 C 381.40625 395.976562 368.902344 408.671875 368.902344 424.335938 C 368.902344 439.996094 381.40625 452.695312 396.835938 452.695312 L 665.816406 452.695312 C 681.246094 452.695312 693.75 439.996094 693.75 424.335938 C 693.75 408.671875 681.246094 395.976562 665.816406 395.976562 Z M 665.816406 395.976562 " fill-opacity="1" fill-rule="evenodd"/></svg>