<svg xmlns="http://www.w3.org/2000/svg" xmlns:xlink="http://www.w3.org/1999/xlink" width="1080" zoomAndPan="magnify" viewBox="0 0 810 809.999993" height="1080" preserveAspectRatio="xMidYMid meet" version="1.0"><defs><clipPath id="c8eb59a17f"><path d="M 14 171 L 796.863281 171 L 796.863281 639.625 L 14 639.625 Z M 14 171 " clip-rule="nonzero"/></clipPath></defs><g clip-path="url(#c8eb59a17f)"><path d="M 90.65625 171.402344 C 77.4375 171.453125 66.34375 181.335938 64.824219 194.414062 L 14.59375 610.65625 C 12.820312 624.914062 22.972656 637.902344 37.269531 639.664062 C 38.367188 639.792969 39.472656 639.871094 40.578125 639.859375 L 770.878906 639.859375 C 785.28125 639.804688 796.914062 628.121094 796.863281 613.757812 C 796.863281 612.664062 796.785156 611.582031 796.65625 610.5 L 742.554688 194.066406 C 740.855469 181.054688 729.722656 171.351562 716.570312 171.402344 Z M 113.9375 223.421875 L 379.644531 223.421875 L 379.644531 250.085938 L 353.660156 250.085938 C 339.246094 250.085938 327.558594 261.746094 327.558594 276.121094 C 327.558594 290.496094 339.246094 302.15625 353.660156 302.15625 L 457.632812 302.15625 C 472.058594 302.15625 483.746094 290.496094 483.746094 276.121094 C 483.746094 261.746094 472.058594 250.085938 457.632812 250.085938 L 431.804688 250.085938 L 431.804688 223.421875 L 693.648438 223.421875 L 741.226562 587.851562 L 69.871094 587.851562 Z M 481.121094 323.945312 C 480.21875 323.921875 479.316406 323.933594 478.417969 323.996094 C 471.671875 324.511719 465.378906 327.640625 460.886719 332.683594 L 312.039062 495.292969 C 302.039062 505.640625 302.335938 522.113281 312.707031 532.085938 C 323.082031 542.0625 339.605469 541.765625 349.605469 531.417969 C 349.9375 531.082031 350.25 530.75 350.558594 530.386719 L 499.40625 367.792969 C 509.292969 357.328125 508.789062 340.871094 498.3125 331.023438 C 493.640625 326.636719 487.527344 324.125 481.121094 323.945312 Z M 223.855469 359.917969 C 216.160156 359.75 208.773438 362.980469 203.6875 368.757812 L 129.160156 449.980469 C 119.429688 460.582031 120.152344 477.042969 130.792969 486.761719 C 141.425781 496.464844 157.9375 495.730469 167.679688 485.125 L 242.15625 403.90625 C 252.117188 393.53125 251.757812 377.058594 241.34375 367.136719 C 236.621094 362.632812 230.394531 360.058594 223.855469 359.917969 Z M 667.304688 359.917969 C 659.582031 359.738281 652.183594 362.96875 647.085938 368.757812 L 572.558594 449.980469 C 562.828125 460.582031 563.550781 477.042969 574.191406 486.761719 C 584.824219 496.464844 601.335938 495.730469 611.066406 485.125 L 685.59375 403.90625 C 695.554688 393.53125 695.195312 377.058594 684.792969 367.136719 C 680.070312 362.632812 673.828125 360.058594 667.304688 359.917969 Z M 667.304688 359.917969 " fill-opacity="1" fill-rule="evenodd"/></g></svg>