<svg width="729" height="537" xmlns="http://www.w3.org/2000/svg" xmlns:xlink="http://www.w3.org/1999/xlink" xml:space="preserve" overflow="hidden"><defs><clipPath id="clip0"><rect x="390" y="774" width="729" height="537"/></clipPath></defs><g clip-path="url(#clip0)" transform="translate(-390 -774)"><path d="M1068.91 932.886 1012.07 932.886C1001.86 932.886 993.58 941.16 993.58 951.388L993.58 992.833 961.808 992.833 961.808 935.605C961.808 925.386 953.537 917.104 943.314 917.104L860.938 917.104 860.938 877.561C860.938 867.358 852.667 859.059 842.444 859.059L757.44 859.059 757.44 811.004 827.402 811.004C837.617 811.004 845.896 802.705 845.896 792.502 845.896 782.283 837.625 774 827.402 774L576.179 774C565.964 774 557.686 782.274 557.686 792.502 557.686 802.705 565.964 811.004 576.179 811.004L648.95 811.004 648.95 859.059 576.179 859.059C565.964 859.059 557.686 867.35 557.686 877.561L557.686 917.104 490.491 917.104C480.276 917.104 471.998 925.378 471.998 935.605L471.998 1052.63 426.987 1052.63 426.987 935.713C426.987 925.493 418.708 917.211 408.494 917.211 398.279 917.211 390 925.493 390 935.713L390 1210.22C390 1220.44 398.271 1228.73 408.494 1228.73 418.708 1228.73 426.987 1220.44 426.987 1210.22L426.987 1089.63 472.006 1089.63 472.006 1210.22C472.006 1220.44 480.276 1228.73 490.499 1228.73L663.333 1228.73 725.157 1304.23C728.666 1308.52 733.913 1311 739.465 1311L943.314 1311C953.529 1311 961.808 1302.72 961.808 1292.5L961.808 1203.1 993.58 1203.1 993.58 1250.67C993.58 1260.87 1001.86 1269.17 1012.07 1269.17L1068.91 1269.17C1076.56 1269.17 1083.43 1264.44 1086.15 1257.27 1159.4 1066.01 1087.71 946.632 1084.61 941.655 1081.25 936.199 1075.31 932.886 1068.91 932.886ZM685.937 811.004 720.461 811.004 720.461 859.059 685.937 859.059 685.937 811.004ZM1056.01 1232.16 1030.57 1232.16 1030.57 1184.6C1030.57 1174.38 1022.3 1166.1 1012.07 1166.1L943.314 1166.1C933.099 1166.1 924.821 1174.37 924.821 1184.6L924.821 1274 748.214 1274 686.39 1198.5C682.881 1194.21 677.634 1191.72 672.081 1191.72L508.993 1191.72 508.993 954.091 576.179 954.091C586.394 954.091 594.673 945.817 594.673 935.597L594.673 896.055 823.967 896.055 823.967 935.597C823.967 945.817 832.238 954.091 842.453 954.091L924.829 954.091 924.829 1011.33C924.829 1021.55 933.108 1029.83 943.322 1029.83L993.588 1029.83 993.588 1094.57C993.588 1104.8 1001.87 1113.08 1012.08 1113.08 1022.3 1113.08 1030.58 1104.8 1030.58 1094.57L1030.58 1011.34 1030.58 969.89 1057.73 969.89C1070.96 998.05 1105.6 1092.6 1056.01 1232.16Z" fill="#FFFFFF" fill-rule="evenodd"/><path d="M763.314 1068.59 820.168 1027.19C826.629 1022.02 827.921 1012.96 821.46 1006.5L747.808 941.818C740.055 935.35 727.134 940.524 727.134 952.167L727.134 1047.89 670.279 1006.5C663.818 1002.62 656.066 1003.91 652.189 1009.08 647.021 1015.55 648.313 1023.31 654.773 1027.19L711.628 1068.59 654.773 1109.98C649.605 1113.86 648.313 1121.63 652.189 1128.09 656.066 1133.27 663.818 1134.56 670.279 1130.68L727.134 1089.29 727.134 1185.01C727.134 1190.19 729.718 1195.36 734.887 1196.65 740.055 1199.24 745.224 1197.95 749.1 1194.07L822.753 1129.39C829.214 1124.21 827.921 1113.86 821.46 1108.69L763.314 1068.59ZM752.977 980.625 793.033 1015.55 752.977 1044.01 752.977 980.625ZM752.977 1156.55 752.977 1093.17 793.033 1121.63 752.977 1156.55Z" fill="#FFFFFF" fill-rule="evenodd"/></g></svg>